<svg width="70" height="62" viewBox="0 0 70 62" fill="none" xmlns="http://www.w3.org/2000/svg">
<path d="M25.5208 62C23.2847 62 21.28 61.4364 19.5067 60.3091C17.7314 59.1818 16.3576 57.6318 15.3854 55.6591C14.6076 56.6455 13.6238 57.4082 12.4338 57.9475C11.2418 58.4885 10.0139 58.7591 8.75 58.7591C6.27083 58.7591 4.19319 57.9371 2.51708 56.2932C0.839028 54.6492 0 52.653 0 50.3045C0 48.2848 0.680556 46.4643 2.04167 44.8429C3.40278 43.2234 5.12847 42.2962 7.21875 42.0614C6.53819 41.122 6.01611 40.1234 5.6525 39.0656C5.28694 38.0098 5.10417 36.8947 5.10417 35.7205C5.10417 33.8417 5.60292 32.0803 6.60042 30.4364C7.59597 28.7924 8.99306 27.4538 10.7917 26.4205C11.0347 27.2659 11.3624 28.1696 11.7746 29.1315C12.1888 30.0954 12.6632 30.9295 13.1979 31.6341C12.5174 32.1508 11.9826 32.7726 11.5938 33.4997C11.2049 34.2287 11.0104 34.9924 11.0104 35.7909C11.0104 38.4212 12.1285 40.0417 14.3646 40.6523C16.6007 41.2629 18.7153 41.7561 20.7083 42.1318L22.0938 44.3864C21.559 45.8894 21.0972 47.1698 20.7083 48.2275C20.3194 49.2834 20.125 50.2341 20.125 51.0795C20.125 52.4886 20.6481 53.7221 21.6942 54.7798C22.7383 55.8357 24.0139 56.3636 25.5208 56.3636C27.0764 56.3636 28.4015 55.7878 29.4963 54.6361C30.589 53.4863 31.5117 52.0546 32.2642 50.3412C33.0186 48.6259 33.6389 46.8053 34.125 44.8795C34.6111 42.9538 35 41.2159 35.2917 39.6659C35.4375 38.8674 35.8507 38.2333 36.5312 37.7636C37.2118 37.2939 37.941 37.1765 38.7188 37.4114C39.5451 37.6462 40.1654 38.1272 40.5796 38.8543C40.9918 39.5832 41.1007 40.347 40.9062 41.1455C40.4688 43.3061 39.9097 45.6076 39.2292 48.05C38.5486 50.4924 37.6376 52.747 36.4963 54.8136C35.3529 56.8803 33.8946 58.5947 32.1213 59.9568C30.346 61.3189 28.1458 62 25.5208 62ZM31.5729 39.9477C30.941 40.5583 30.1758 40.8279 29.2775 40.7565C28.3772 40.687 27.5868 40.347 26.9063 39.7364C23.1632 36.4485 20.1736 33.4659 17.9375 30.7886C15.7014 28.1114 14.5833 25.2227 14.5833 22.1227C14.5833 19.0697 15.6654 16.4976 17.8296 14.4065C19.9918 12.3173 22.6528 11.2727 25.8125 11.2727C26.0069 11.2727 26.1771 11.284 26.3229 11.3065C26.4688 11.331 26.6389 11.3432 26.8333 11.3432C26.6389 10.8735 26.4931 10.4038 26.3958 9.93409C26.2986 9.46439 26.25 8.97121 26.25 8.45455C26.25 6.10606 27.1007 4.10985 28.8021 2.46591C30.5035 0.82197 32.5694 0 35 0C37.4306 0 39.4965 0.82197 41.1979 2.46591C42.8993 4.10985 43.75 6.10606 43.75 8.45455C43.75 8.97121 43.7014 9.45218 43.6042 9.89745C43.5069 10.3446 43.3611 10.803 43.1667 11.2727H44.1875C47.1042 11.2727 49.5833 12.1764 51.625 13.9838C53.6667 15.7931 54.8819 18.0364 55.2708 20.7136C54.3958 20.5727 53.4119 20.5023 52.3192 20.5023C51.2244 20.5023 50.2153 20.5492 49.2917 20.6432C48.9514 19.5629 48.3321 18.6705 47.4338 17.9659C46.5335 17.2614 45.4514 16.9091 44.1875 16.9091C42.4861 16.9091 41.1619 17.391 40.215 18.3548C39.2661 19.3168 37.9653 20.7136 36.3125 22.5455H33.6146C31.9132 20.6197 30.589 19.1984 29.6421 18.2815C28.6932 17.3666 27.4167 16.9091 25.8125 16.9091C24.2569 16.9091 22.9688 17.4023 21.9479 18.3886C20.9271 19.375 20.4167 20.6197 20.4167 22.1227C20.4167 24.0955 21.3763 26.1499 23.2954 28.2861C25.2165 30.4242 27.8056 32.9258 31.0625 35.7909C31.7431 36.3545 32.1436 37.0469 32.2642 37.8679C32.3867 38.6908 32.1562 39.3841 31.5729 39.9477ZM44.4063 62C43.3368 62 42.28 61.8591 41.2358 61.5773C40.1897 61.2955 39.1806 60.8492 38.2083 60.2386C38.7431 59.5811 39.2778 58.8061 39.8125 57.9136C40.3472 57.0212 40.8333 56.1992 41.2708 55.4477C41.8056 55.7765 42.3403 56.0114 42.875 56.1523C43.4097 56.2932 43.9444 56.3636 44.4792 56.3636C46.0347 56.3636 47.3346 55.8357 48.3787 54.7798C49.4249 53.7221 49.9479 52.4652 49.9479 51.0091C49.9479 50.1167 49.7535 49.1538 49.3646 48.1205C48.9757 47.0871 48.5139 45.8189 47.9792 44.3159L49.3646 42.0614C51.4062 41.6856 53.5335 41.1924 55.7463 40.5818C57.9571 39.9712 59.0625 38.3508 59.0625 35.7205C59.0625 33.8417 58.346 32.4795 56.9129 31.6341C55.4779 30.7886 53.9097 30.3659 52.2083 30.3659C50.5069 30.3659 48.5382 30.6477 46.3021 31.2114C44.066 31.775 41.5139 32.503 38.6458 33.3955C37.8194 33.6303 37.0174 33.5946 36.2396 33.2884C35.4618 32.984 34.9514 32.4326 34.7083 31.6341C34.4653 30.8356 34.5868 30.0719 35.0729 29.3429C35.559 28.6158 36.2153 28.1348 37.0417 27.9C40.1042 26.9606 42.875 26.1969 45.3542 25.6088C47.8333 25.0226 50.1424 24.7295 52.2812 24.7295C55.6354 24.7295 58.5764 25.6924 61.1042 27.6182C63.6319 29.5439 64.8958 32.2447 64.8958 35.7205C64.8958 36.8947 64.7131 38.0098 64.3475 39.0656C63.9839 40.1234 63.4618 41.122 62.7812 42.0614C64.8715 42.2962 66.5972 43.2234 67.9583 44.8429C69.3194 46.4643 70 48.2848 70 50.3045C70 52.653 69.1619 54.6492 67.4858 56.2932C65.8078 57.9371 63.7292 58.7591 61.25 58.7591C59.9861 58.7591 58.7592 58.4885 57.5692 57.9475C56.3772 57.4082 55.3924 56.6455 54.6146 55.6591C53.6424 57.6318 52.2686 59.1818 50.4933 60.3091C48.72 61.4364 46.691 62 44.4063 62Z" fill="#66C0FF"/>
</svg>
