<svg width="78" height="68" viewBox="0 0 78 68" fill="none" xmlns="http://www.w3.org/2000/svg">
<g clip-path="url(#clip0_9017_109)">
<path d="M48.75 33.0933V31.1667L26 17L3.25 31.1667V59.5H19.5V42.5H32.5V59.5H37.96C36.5625 56.9217 35.75 54.06 35.75 51C35.75 43.095 41.08 36.295 48.75 33.0933Z" fill="#66C0FF"/>
<path d="M74.75 37.145V8.5H32.5V14.0817L55.25 28.2483V31.3933C56.3225 31.2517 57.395 31.1667 58.5 31.1667C64.87 31.1667 70.6225 33.4617 74.75 37.145ZM55.25 19.8333H61.75V25.5H55.25V19.8333Z" fill="#66C0FF"/>
<path d="M74.75 51C74.75 43.18 67.47 36.8333 58.5 36.8333C49.53 36.8333 42.25 43.18 42.25 51C42.25 58.82 49.53 65.1666 58.5 65.1666C67.47 65.1666 74.75 58.82 74.75 51ZM56.875 59.5V52.4166H48.75V49.5833H56.875V42.5H60.125V49.5833H68.25V52.4166H60.125V59.5H56.875Z" fill="#66C0FF"/>
</g>
<defs>
<clipPath id="clip0_9017_109">
<rect width="78" height="68" fill="white"/>
</clipPath>
</defs>
</svg>
