<svg width="64" height="62" viewBox="0 0 64 62" fill="none" xmlns="http://www.w3.org/2000/svg">
<path d="M32 7.3625C36.64 7.3625 40.4 11.005 40.4 15.5C40.4 19.995 36.64 23.6375 32 23.6375C27.36 23.6375 23.6 19.995 23.6 15.5C23.6 11.005 27.36 7.3625 32 7.3625ZM32 42.2375C43.88 42.2375 56.4 47.895 56.4 50.375V54.6375H7.6V50.375C7.6 47.895 20.12 42.2375 32 42.2375ZM32 0C23.16 0 16 6.93625 16 15.5C16 24.0637 23.16 31 32 31C40.84 31 48 24.0637 48 15.5C48 6.93625 40.84 0 32 0ZM32 34.875C21.32 34.875 0 40.0675 0 50.375V62H64V50.375C64 40.0675 42.68 34.875 32 34.875Z" fill="#66C0FF"/>
</svg>
